<svg xmlns="http://www.w3.org/2000/svg" style="display: none;">
  <defs>
    <!-- Add icons here with id="icon-{name}" -->
    <!-- Example: -->
    <!-- <symbol id="icon-plus" viewBox="0 0 24 24">
      <path d="M12 5v14M5 12h14" stroke="currentColor" stroke-width="2" fill="none" stroke-linecap="round" stroke-linejoin="round"/>
    </symbol> -->

    <symbol id="icon-plus-circle" fill="none" viewBox="0 0 24 24">
      <path fill="currentColor" fill-rule="evenodd" d="M2 12C2 6.477 6.477 2 12 2s10 4.477 10 10-4.477 10-10 10S2 17.523 2 12m10-8a8 8 0 1 0 0 16 8 8 0 0 0 0-16" clip-rule="evenodd"/><path fill="currentColor" fill-rule="evenodd" d="M13 7a1 1 0 1 0-2 0v4H7a1 1 0 1 0 0 2h4v4a1 1 0 1 0 2 0v-4h4a1 1 0 1 0 0-2h-4z" clip-rule="evenodd"/>
    </symbol>
  </defs>
</svg>
